<svg width="11" height="6" viewBox="0 0 11 6" fill="none" xmlns="http://www.w3.org/2000/svg">
<path d="M5.41516 5.71355L9.88577 1.26487C9.98925 1.16197 10.0463 1.02462 10.0463 0.878164C10.0463 0.731709 9.98925 0.594356 9.88577 0.491463L9.55662 0.163848C9.34214 -0.0493333 8.99354 -0.0493333 8.77939 0.163848L5.02524 3.89952L1.26692 0.159703C1.16343 0.0568105 1.02548 0 0.878384 0C0.731122 0 0.593171 0.0568105 0.489606 0.159703L0.160533 0.487318C0.0570498 0.590292 4.00543e-05 0.727564 4.00543e-05 0.87402C4.00543e-05 1.02048 0.0570498 1.15783 0.160533 1.26072L4.63523 5.71355C4.73904 5.81669 4.87765 5.87334 5.02499 5.87301C5.1729 5.87334 5.31143 5.81669 5.41516 5.71355Z" fill="#AAAAAA"/>
</svg>
