<svg width="24" height="22" viewBox="0 0 24 22" fill="none" xmlns="http://www.w3.org/2000/svg">
<path d="M7.73256 14.0627H7.73366C7.73457 14.0627 7.73549 14.0625 7.7364 14.0625H20.4844C20.7983 14.0625 21.0742 13.8543 21.1604 13.5526L23.9729 3.70881C24.0335 3.49659 23.9911 3.26844 23.8583 3.09229C23.7254 2.91614 23.5176 2.8125 23.2969 2.8125H6.11097L5.60835 0.550599C5.53675 0.228882 5.25147 0 4.92188 0H0.703126C0.314759 0 0 0.314759 0 0.703126C0 1.09149 0.314759 1.40625 0.703126 1.40625H4.35792C4.44691 1.80707 6.7632 12.2305 6.8965 12.8302C6.14924 13.1551 5.62501 13.9001 5.62501 14.7656C5.62501 15.9287 6.5713 16.875 7.73439 16.875H20.4844C20.8728 16.875 21.1875 16.5603 21.1875 16.1719C21.1875 15.7835 20.8728 15.4688 20.4844 15.4688H7.73439C7.34675 15.4688 7.03126 15.1533 7.03126 14.7656C7.03126 14.3786 7.34565 14.0636 7.73256 14.0627ZM22.3647 4.21876L19.954 12.6563H8.29835L6.42335 4.21876H22.3647Z" fill="black"/>
<path d="M7.03125 18.9844C7.03125 20.1475 7.97754 21.0938 9.14063 21.0938C10.3037 21.0938 11.25 20.1475 11.25 18.9844C11.25 17.8213 10.3037 16.875 9.14063 16.875C7.97754 16.875 7.03125 17.8213 7.03125 18.9844ZM9.14063 18.2813C9.52826 18.2813 9.84375 18.5968 9.84375 18.9844C9.84375 19.372 9.52826 19.6875 9.14063 19.6875C8.75299 19.6875 8.4375 19.372 8.4375 18.9844C8.4375 18.5968 8.75299 18.2813 9.14063 18.2813Z" fill="black"/>
<path d="M16.9688 18.9844C16.9688 20.1475 17.915 21.0938 19.0781 21.0938C20.2412 21.0938 21.1875 20.1475 21.1875 18.9844C21.1875 17.8213 20.2412 16.875 19.0781 16.875C17.915 16.875 16.9688 17.8213 16.9688 18.9844ZM19.0781 18.2813C19.4658 18.2813 19.7813 18.5968 19.7813 18.9844C19.7813 19.372 19.4658 19.6875 19.0781 19.6875C18.6905 19.6875 18.375 19.372 18.375 18.9844C18.375 18.5968 18.6905 18.2813 19.0781 18.2813Z" fill="black"/>
</svg>
