<svg width="34" height="27" viewBox="0 0 34 27" fill="none" xmlns="http://www.w3.org/2000/svg">
<path d="M32.9618 12.8586L0.512865 12.8586C0.229763 12.8586 1.39171e-07 13.0883 8.96719e-08 13.3714C4.01729e-08 13.6545 0.229763 13.8843 0.512864 13.8843L32.9618 13.8843C33.2449 13.8843 33.4747 13.6546 33.4747 13.3715C33.4747 13.0883 33.2449 12.8586 32.9618 12.8586Z" fill="#202020"/>
<path d="M20.1022 1.72559e-05C19.9709 1.72329e-05 19.8396 0.0502778 19.7391 0.149773C19.5391 0.349791 19.5391 0.674946 19.7391 0.874964L32.2366 13.3724L19.7391 25.8658C19.5391 26.0658 19.5391 26.391 19.7391 26.591C19.9391 26.791 20.2643 26.791 20.4643 26.591L33.3238 13.7356C33.4203 13.6391 33.4736 13.5089 33.4736 13.3724C33.4736 13.236 33.4192 13.1058 33.3238 13.0093L20.4643 0.150801C20.3648 0.0502778 20.2335 1.72788e-05 20.1022 1.72559e-05Z" fill="#202020"/>
</svg>
