<svg width="12" height="24" viewBox="0 0 12 24" fill="none" xmlns="http://www.w3.org/2000/svg">
<path d="M11.5565 -1.82981e-06C11.67 -1.84965e-06 11.7835 0.0451069 11.8703 0.134405C12.0432 0.313919 12.0432 0.605747 11.8703 0.785261L1.06913 12.0017L11.8703 23.2145C12.0432 23.394 12.0432 23.6858 11.8703 23.8654C11.6975 24.0449 11.4165 24.0449 11.2436 23.8654L0.129432 12.3276C0.0461005 12.2411 1.73826e-06 12.1242 1.71685e-06 12.0017C1.69544e-06 11.8793 0.0469863 11.7624 0.129431 11.6758L11.2436 0.135327C11.3296 0.0451089 11.443 -1.80997e-06 11.5565 -1.82981e-06Z" fill="#202020"/>
</svg>
