<svg width="15" height="15" viewBox="0 0 15 15" fill="none" xmlns="http://www.w3.org/2000/svg">
<path d="M6.78267 7.5023L0.143033 14.1883C-0.0414274 14.3741 -0.0414274 14.675 0.143033 14.8607C0.235146 14.9537 0.356088 15 0.476796 15C0.597738 15 0.718446 14.9537 0.810559 14.8607L7.50012 8.12445L14.1897 14.8607C14.282 14.9537 14.4027 15 14.5234 15C14.6441 15 14.7651 14.9537 14.8572 14.8607C15.0417 14.675 15.0417 14.3741 14.8572 14.1883L8.2178 7.5023L14.8617 0.81156C15.0461 0.625811 15.0461 0.324884 14.8617 0.139135C14.6772 -0.0463782 14.3784 -0.0463782 14.1941 0.139135L7.50035 6.88015L0.805871 0.139371C0.621411 -0.0461422 0.322806 -0.0461422 0.138345 0.139371C-0.0461151 0.32512 -0.0461151 0.626047 0.138345 0.811796L6.78267 7.5023Z" fill="#AAAAAA"/>
</svg>
