<svg width="26" height="23" viewBox="0 0 26 23" fill="none" xmlns="http://www.w3.org/2000/svg">
<path d="M23.8999 2.13528C22.5385 0.765373 20.736 0.0166386 18.8124 0.0166386C16.8887 0.0166386 15.0808 0.770919 13.7193 2.14082L13.0083 2.85628L12.2862 2.12973C10.9247 0.759826 9.11131 0 7.18763 0C5.26947 0 3.46154 0.75428 2.1056 2.11864C0.744145 3.48855 -0.00548178 5.30769 3.0182e-05 7.24331C3.0182e-05 9.17893 0.755169 10.9925 2.11662 12.3624L12.4681 22.7782C12.6114 22.9224 12.8043 23 12.9917 23C13.1791 23 13.3721 22.9279 13.5154 22.7837L23.8889 12.3846C25.2503 11.0147 26 9.19556 26 7.25995C26.0055 5.32433 25.2614 3.50518 23.8999 2.13528ZM22.8416 11.3253L12.9917 21.1975L3.1639 11.3087C2.08355 10.2216 1.48826 8.7796 1.48826 7.24331C1.48826 5.70702 2.07804 4.26501 3.15839 3.18351C4.23322 2.102 5.66633 1.50301 7.18763 1.50301C8.71445 1.50301 10.1531 2.102 11.2334 3.18905L12.4791 4.44249C12.7713 4.73644 13.2398 4.73644 13.5319 4.44249L14.7666 3.20014C15.8469 2.11309 17.2856 1.51411 18.8069 1.51411C20.3282 1.51411 21.7613 2.11309 22.8416 3.1946C23.922 4.28165 24.5117 5.72366 24.5117 7.25995C24.5173 8.79624 23.922 10.2382 22.8416 11.3253Z" fill="#202020"/>
</svg>
