<svg width="39" height="39" viewBox="0 0 39 39" fill="none" xmlns="http://www.w3.org/2000/svg">
<path d="M37.7 0H1.29998C0.582298 0.000595093 0.000595093 0.582298 0 1.29998V5.85006C0.000595093 6.56774 0.582298 7.14915 1.29998 7.15004H2.12984L0.0856934 10.7274C-0.0291595 10.9286 -0.0285645 11.1758 0.0877762 11.3764C0.204117 11.5766 0.41835 11.7001 0.650139 11.7001H2.12984L0.0856934 15.2775C-0.0291595 15.4787 -0.0285645 15.7259 0.0877762 15.9262C0.204117 16.1267 0.41835 16.2499 0.650139 16.2499H2.12984L0.0856934 19.8276C-0.0291595 20.0287 -0.0285645 20.2757 0.0877762 20.4762C0.204117 20.6765 0.41835 20.8 0.650139 20.8H2.12984L0.0856934 24.3777C-0.0291595 24.5788 -0.0285645 24.8258 0.0877762 25.0263C0.204117 25.2266 0.41835 25.3501 0.650139 25.3501H2.12984L0.0856934 28.9275C-0.0291595 29.1286 -0.0285645 29.3759 0.0877762 29.5761C0.204117 29.7767 0.41835 29.8998 0.650139 29.9001H2.12984L0.0856934 33.4775C-0.0291595 33.6787 -0.0285645 33.9259 0.0877762 34.1262C0.204117 34.3267 0.41835 34.4499 0.650139 34.4499H2.12984L0.0856934 38.0276C-0.0291595 38.2288 -0.0285645 38.4757 0.0877762 38.6763C0.204117 38.8765 0.41835 39 0.650139 39H38.3499C38.5816 39 38.7959 38.8765 38.9122 38.6763C39.0286 38.4757 39.0292 38.2288 38.9143 38.0276L36.8702 34.4499H38.3499C38.5816 34.4499 38.7959 34.3267 38.9122 34.1262C39.0286 33.9259 39.0292 33.6787 38.9143 33.4775L36.8702 29.9001H38.3499C38.5816 29.8998 38.7959 29.7767 38.9122 29.5761C39.0286 29.3759 39.0292 29.1286 38.9143 28.9275L36.8702 25.3501H38.3499C38.5816 25.3501 38.7959 25.2266 38.9122 25.0263C39.0286 24.8258 39.0292 24.5788 38.9143 24.3777L36.8702 20.8H38.3499C38.5816 20.8 38.7959 20.6765 38.9122 20.4762C39.0286 20.2757 39.0292 20.0287 38.9143 19.8276L36.8702 16.2499H38.3499C38.5816 16.2499 38.7959 16.1267 38.9122 15.9262C39.0286 15.7259 39.0292 15.4787 38.9143 15.2775L36.8702 11.7001H38.3499C38.5816 11.7001 38.7959 11.5766 38.9122 11.3764C39.0286 11.1758 39.0292 10.9286 38.9143 10.7274L36.8702 7.15004H37.7C38.4177 7.14915 38.9991 6.56774 39 5.85006V1.29998C38.9991 0.582298 38.4177 0.000892643 37.7 0V0ZM3.62709 7.15004H7.15004V10.4001H1.7701L3.62709 7.15004ZM27.95 7.15004V10.4001H11.05V7.15004H27.95ZM33.1499 7.15004V10.4001H31.85V7.15004H33.1499ZM11.05 33.1499V29.9001H27.95V33.1499H11.05ZM27.95 34.4499V37.7H11.05V34.4499H27.95ZM27.95 14.9499H11.05V11.7001H27.95V14.9499ZM29.25 11.7001H30.55V14.9499H29.25V11.7001ZM11.05 24.0501V20.8H27.95V24.0501H11.05ZM27.95 25.3501V28.5999H11.05V25.3501H27.95ZM11.05 19.5V16.2499H27.95V19.5H11.05ZM9.75 14.9499H8.45002V11.7001H9.75V14.9499ZM9.75 16.2499V19.5H8.45002V16.2499H9.75ZM9.75 20.8V24.0501H8.45002V20.8H9.75ZM9.75 25.3501V28.5999H8.45002V25.3501H9.75ZM9.75 29.9001V33.1499H8.45002V29.9001H9.75ZM29.25 29.9001H30.55V33.1499H29.25V29.9001ZM29.25 28.5999V25.3501H30.55V28.5999H29.25ZM29.25 24.0501V20.8H30.55V24.0501H29.25ZM29.25 19.5V16.2499H30.55V19.5H29.25ZM31.85 16.2499H33.1499V19.5H31.85V16.2499ZM31.85 14.9499V11.7001H33.1499V14.9499H31.85ZM30.55 10.4001H29.25V7.15004H30.55V10.4001ZM9.75 10.4001H8.45002V7.15004H9.75V10.4001ZM3.62709 11.7001H7.15004V14.9499H1.7701L3.62709 11.7001ZM3.62709 16.2499H7.15004V19.5H1.7701L3.62709 16.2499ZM3.62709 20.8H7.15004V24.0501H1.7701L3.62709 20.8ZM3.62709 25.3501H7.15004V28.5999H1.7701L3.62709 25.3501ZM3.62709 29.9001H7.15004V33.1499H1.7701L3.62709 29.9001ZM3.62709 34.4499H7.15004V37.7H1.7701L3.62709 34.4499ZM8.45002 37.7V34.4499H9.75V37.7H8.45002ZM29.25 37.7V34.4499H30.55V37.7H29.25ZM37.2296 37.7H31.85V34.4499H35.3729L37.2296 37.7ZM37.2296 33.1499H31.85V29.9001H35.3729L37.2296 33.1499ZM37.2296 28.5999H31.85V25.3501H35.3729L37.2296 28.5999ZM37.2296 24.0501H31.85V20.8H33.1499V22.1C33.1499 22.4591 33.4409 22.7501 33.8001 22.7501C34.1589 22.7501 34.4499 22.4591 34.4499 22.1V20.8H35.3729L37.2296 24.0501ZM37.2296 19.5H34.4499V16.2499H35.3729L37.2296 19.5ZM37.2296 14.9499H34.4499V11.7001H35.3729L37.2296 14.9499ZM37.2296 10.4001H34.4499V7.15004H35.3729L37.2296 10.4001ZM35.7499 5.85006H1.29998V1.29998H37.7L37.7006 5.85006H35.7499Z" fill="#202020"/>
<path d="M4.55003 3.25H3.25005C2.89091 3.25 2.59991 3.541 2.59991 3.89984C2.59991 4.25898 2.89091 4.54998 3.25005 4.54998H4.55003C4.90887 4.54998 5.19987 4.25898 5.19987 3.89984C5.19987 3.541 4.90887 3.25 4.55003 3.25Z" fill="#202020"/>
<path d="M11.05 3.25H7.15002C6.79088 3.25 6.49988 3.541 6.49988 3.89984C6.49988 4.25898 6.79088 4.54998 7.15002 4.54998H11.05C11.4091 4.54998 11.7001 4.25898 11.7001 3.89984C11.7001 3.541 11.4091 3.25 11.05 3.25Z" fill="#202020"/>
<line x1="1" y1="4.37114e-08" x2="0.999998" y2="39" stroke="#FD0000" stroke-width="2"/>
</svg>
