<svg width="23" height="23" viewBox="0 0 23 23" fill="none" xmlns="http://www.w3.org/2000/svg">
<path d="M10.9911 10.9946L1.56848 11.0274C1.3067 11.0283 1.09392 11.2411 1.09301 11.5028C1.09238 11.6337 1.14519 11.7519 1.23054 11.8373C1.31606 11.9228 1.43413 11.9755 1.56502 11.9748L11.0585 11.9418L11.0255 21.4353C11.025 21.5664 11.0777 21.6844 11.163 21.7698C11.2484 21.8551 11.3666 21.9079 11.4975 21.9073C11.7593 21.9064 11.9721 21.6936 11.973 21.4318L12.0059 12.0093L21.4349 11.9762C21.6967 11.9753 21.9095 11.7625 21.9104 11.5007C21.9111 11.2391 21.6998 11.0278 21.4384 11.0287L11.9385 11.0621L11.9713 1.56194C11.972 1.30033 11.7609 1.08919 11.4993 1.08993C11.2375 1.09084 11.0247 1.30363 11.0238 1.56541L10.9911 10.9946Z" fill="#202020"/>
</svg>
