<svg width="18" height="17" viewBox="0 0 18 17" fill="none" xmlns="http://www.w3.org/2000/svg">
<path d="M15.364 10.9896C14.3837 10.0638 13.217 9.37846 11.9439 8.96358C13.3074 8.07669 14.2031 6.59241 14.2031 4.91406C14.2031 2.20445 11.869 0 9 0C6.131 0 3.79688 2.20445 3.79688 4.91406C3.79688 6.59241 4.69262 8.07669 6.05609 8.96358C4.78308 9.37846 3.61631 10.0638 2.63605 10.9896C0.936176 12.595 0 14.7296 0 17H1.40625C1.40625 13.0454 4.81279 9.82812 9 9.82812C13.1872 9.82812 16.5938 13.0454 16.5938 17H18C18 14.7296 17.0638 12.595 15.364 10.9896ZM9 8.5C6.90641 8.5 5.20312 6.89138 5.20312 4.91406C5.20312 2.93675 6.90641 1.32812 9 1.32812C11.0936 1.32812 12.7969 2.93675 12.7969 4.91406C12.7969 6.89138 11.0936 8.5 9 8.5Z" fill="#202020"/>
</svg>
