<svg width="24" height="22" viewBox="0 0 24 22" fill="none" xmlns="http://www.w3.org/2000/svg"><path d="M7.733 14.063h12.751c.314 0 .59-.209.676-.51l2.813-9.844a.703.703 0 0 0-.676-.897H6.11L5.608.551A.703.703 0 0 0 4.922 0H.703a.703.703 0 1 0 0 1.406h3.655L6.896 12.83a2.112 2.112 0 0 0-1.271 1.936c0 1.163.946 2.109 2.11 2.109h12.75a.703.703 0 1 0 0-1.406H7.734a.704.704 0 0 1-.002-1.406zm14.632-9.844l-2.411 8.437H8.298L6.423 4.22h15.942zM7.031 18.984c0 1.163.947 2.11 2.11 2.11 1.163 0 2.109-.947 2.109-2.11 0-1.163-.946-2.109-2.11-2.109-1.162 0-2.109.946-2.109 2.11zm2.11-.703a.704.704 0 0 1 0 1.407.704.704 0 0 1 0-1.407zM16.969 18.984c0 1.163.946 2.11 2.11 2.11 1.162 0 2.108-.947 2.108-2.11 0-1.163-.946-2.109-2.109-2.109s-2.11.946-2.11 2.11zm2.11-.703a.704.704 0 0 1 0 1.407.704.704 0 0 1 0-1.407z" fill="#000"/></svg>