<svg width="26" height="23" viewBox="0 0 26 23" fill="none" xmlns="http://www.w3.org/2000/svg"><path d="M23.9 2.135A7.114 7.114 0 0 0 18.812.017 7.133 7.133 0 0 0 13.72 2.14l-.71.715-.723-.726A7.15 7.15 0 0 0 7.188 0a7.125 7.125 0 0 0-5.082 2.119A7.194 7.194 0 0 0 0 7.243c0 1.936.755 3.75 2.117 5.12l10.351 10.415a.746.746 0 0 0 .524.222.74.74 0 0 0 .523-.216l10.374-10.4A7.222 7.222 0 0 0 26 7.26a7.188 7.188 0 0 0-2.1-5.125zm-1.058 9.19l-9.85 9.873-9.828-9.89a5.728 5.728 0 0 1-1.676-4.065 5.7 5.7 0 0 1 1.67-4.06 5.65 5.65 0 0 1 4.03-1.68 5.67 5.67 0 0 1 4.045 1.686l1.246 1.253a.739.739 0 0 0 1.053 0L14.767 3.2a5.666 5.666 0 0 1 4.04-1.686c1.521 0 2.954.6 4.035 1.68a5.722 5.722 0 0 1 1.67 4.066 5.7 5.7 0 0 1-1.67 4.065z" fill="#202020"/></svg>