<svg width="39" height="39" viewBox="0 0 39 39" fill="none" xmlns="http://www.w3.org/2000/svg"><path d="M37.7 0H1.3C.582 0 0 .582 0 1.3v4.55c0 .718.582 1.3 1.3 1.3h.83L.086 10.727a.65.65 0 0 0 .564.973h1.48L.086 15.278a.65.65 0 0 0 .564.972h1.48L.086 19.828a.65.65 0 0 0 .564.972h1.48L.086 24.378a.65.65 0 0 0 .564.972h1.48L.086 28.927a.65.65 0 0 0 .564.973h1.48L.086 33.478a.65.65 0 0 0 .564.972h1.48L.086 38.028A.65.65 0 0 0 .65 39h37.7a.65.65 0 0 0 .564-.972L36.87 34.45h1.48a.65.65 0 0 0 .564-.973L36.87 29.9h1.48a.65.65 0 0 0 .564-.973L36.87 25.35h1.48a.65.65 0 0 0 .564-.972L36.87 20.8h1.48a.65.65 0 0 0 .564-.972L36.87 16.25h1.48a.65.65 0 0 0 .564-.973L36.87 11.7h1.48a.65.65 0 0 0 .564-.973L36.87 7.15h.83c.718 0 1.3-.582 1.3-1.3V1.3c0-.718-.582-1.3-1.3-1.3zM3.627 7.15H7.15v3.25H1.77l1.857-3.25zm24.323 0v3.25h-16.9V7.15h16.9zm5.2 0v3.25h-1.3V7.15h1.3zm-22.1 26V29.9h16.9v3.25h-16.9zm16.9 1.3v3.25h-16.9v-3.25h16.9zm0-19.5h-16.9V11.7h16.9v3.25zm1.3-3.25h1.3v3.25h-1.3V11.7zm-18.2 12.35V20.8h16.9v3.25h-16.9zm16.9 1.3v3.25h-16.9v-3.25h16.9zm-16.9-5.85v-3.25h16.9v3.25h-16.9zm-1.3-4.55h-1.3V11.7h1.3v3.25zm0 1.3v3.25h-1.3v-3.25h1.3zm0 4.55v3.25h-1.3V20.8h1.3zm0 4.55v3.25h-1.3v-3.25h1.3zm0 4.55v3.25h-1.3V29.9h1.3zm19.5 0h1.3v3.25h-1.3V29.9zm0-1.3v-3.25h1.3v3.25h-1.3zm0-4.55V20.8h1.3v3.25h-1.3zm0-4.55v-3.25h1.3v3.25h-1.3zm2.6-3.25h1.3v3.25h-1.3v-3.25zm0-1.3V11.7h1.3v3.25h-1.3zm-1.3-4.55h-1.3V7.15h1.3v3.25zm-20.8 0h-1.3V7.15h1.3v3.25zm-6.123 1.3H7.15v3.25H1.77l1.857-3.25zm0 4.55H7.15v3.25H1.77l1.857-3.25zm0 4.55H7.15v3.25H1.77l1.857-3.25zm0 4.55H7.15v3.25H1.77l1.857-3.25zm0 4.55H7.15v3.25H1.77l1.857-3.25zm0 4.55H7.15v3.25H1.77l1.857-3.25zM8.45 37.7v-3.25h1.3v3.25h-1.3zm20.8 0v-3.25h1.3v3.25h-1.3zm7.98 0h-5.38v-3.25h3.523l1.857 3.25zm0-4.55h-5.38V29.9h3.523l1.857 3.25zm0-4.55h-5.38v-3.25h3.523l1.857 3.25zm0-4.55h-5.38V20.8h1.3v1.3a.65.65 0 1 0 1.3 0v-1.3h.923l1.857 3.25zm0-4.55h-2.78v-3.25h.923l1.857 3.25zm0-4.55h-2.78V11.7h.923l1.857 3.25zm0-4.55h-2.78V7.15h.923l1.857 3.25zm-1.48-4.55H1.3V1.3h36.4v4.55h-1.95z" fill="#202020"/><path d="M4.55 3.25h-1.3a.65.65 0 1 0 0 1.3h1.3a.65.65 0 0 0 0-1.3zM11.05 3.25h-3.9a.65.65 0 1 0 0 1.3h3.9a.65.65 0 1 0 0-1.3z" fill="#202020"/><path stroke="#FD0000" stroke-width="2" d="M1 0v39"/></svg>