<svg width="18" height="18" viewBox="0 0 18 18" fill="none" xmlns="http://www.w3.org/2000/svg"><path d="M17.991 14.206a.87.87 0 0 1-.266.762l-2.535 2.517a1.425 1.425 0 0 1-.447.324 1.85 1.85 0 0 1-.543.172c-.013 0-.051.003-.115.01-.063.006-.146.009-.248.009-.241 0-.632-.041-1.171-.124-.54-.083-1.201-.286-1.982-.61-.782-.324-1.668-.81-2.658-1.459-.991-.648-2.046-1.538-3.164-2.67-.889-.876-1.626-1.715-2.21-2.516a17.937 17.937 0 0 1-1.41-2.222 11.969 11.969 0 0 1-.8-1.85 9.818 9.818 0 0 1-.363-1.43c-.063-.4-.089-.714-.076-.943.013-.229.02-.356.02-.382.025-.177.082-.359.17-.543.09-.184.198-.334.325-.448L3.052.267A.84.84 0 0 1 3.662 0 .71.71 0 0 1 4.1.143c.127.095.235.213.324.353l2.039 3.87a.928.928 0 0 1 .095.668c-.05.241-.159.445-.324.61l-.933.934a.318.318 0 0 0-.067.124.47.47 0 0 0-.029.143c.051.267.165.572.343.916.153.305.388.676.705 1.115.318.439.769.944 1.353 1.516.572.585 1.08 1.04 1.525 1.363.444.324.816.563 1.114.715.299.153.528.245.686.277l.239.047c.025 0 .066-.01.123-.028a.317.317 0 0 0 .124-.067l1.086-1.106c.23-.203.496-.305.8-.305.217 0 .388.038.515.114h.02l3.677 2.174c.267.166.426.375.476.63z" fill="#202020"/></svg>